<mxfile host="65bd71144e">
    <diagram name="Page-1" id="IRXrGAzZk-fSAHAxPG_1">
        <mxGraphModel dx="2192" dy="966" grid="1" gridSize="10" guides="1" tooltips="1" connect="1" arrows="1" fold="1" page="1" pageScale="1" pageWidth="827" pageHeight="1169" math="0" shadow="0">
            <root>
                <mxCell id="0"/>
                <mxCell id="1" parent="0"/>
                <mxCell id="evuOkTjY95VLcF-Q0Ab5-5" value="" style="edgeStyle=orthogonalEdgeStyle;rounded=0;orthogonalLoop=1;jettySize=auto;html=1;" parent="1" target="evuOkTjY95VLcF-Q0Ab5-4" edge="1">
                    <mxGeometry relative="1" as="geometry">
                        <mxPoint x="-324" y="160" as="sourcePoint"/>
                    </mxGeometry>
                </mxCell>
                <mxCell id="evuOkTjY95VLcF-Q0Ab5-8" style="edgeStyle=orthogonalEdgeStyle;rounded=0;orthogonalLoop=1;jettySize=auto;html=1;entryX=0.5;entryY=0;entryDx=0;entryDy=0;" parent="1" source="evuOkTjY95VLcF-Q0Ab5-4" target="2" edge="1">
                    <mxGeometry relative="1" as="geometry">
                        <mxPoint x="-323.99999999999955" y="260" as="targetPoint"/>
                    </mxGeometry>
                </mxCell>
                <mxCell id="evuOkTjY95VLcF-Q0Ab5-4" value="Thread init" style="whiteSpace=wrap;html=1;rounded=0;" parent="1" vertex="1">
                    <mxGeometry x="-384" y="180" width="120" height="60" as="geometry"/>
                </mxCell>
                <mxCell id="evuOkTjY95VLcF-Q0Ab5-12" value="" style="edgeStyle=orthogonalEdgeStyle;rounded=0;orthogonalLoop=1;jettySize=auto;html=1;entryX=0.5;entryY=0;entryDx=0;entryDy=0;" parent="1" source="evuOkTjY95VLcF-Q0Ab5-7" target="28" edge="1">
                    <mxGeometry relative="1" as="geometry">
                        <mxPoint x="-598.9999999999998" y="574" as="targetPoint"/>
                    </mxGeometry>
                </mxCell>
                <mxCell id="evuOkTjY95VLcF-Q0Ab5-16" value="Yes" style="edgeLabel;html=1;align=center;verticalAlign=middle;resizable=0;points=[];" parent="evuOkTjY95VLcF-Q0Ab5-12" vertex="1" connectable="0">
                    <mxGeometry x="-0.1231" y="2" relative="1" as="geometry">
                        <mxPoint as="offset"/>
                    </mxGeometry>
                </mxCell>
                <mxCell id="evuOkTjY95VLcF-Q0Ab5-15" value="" style="edgeStyle=orthogonalEdgeStyle;rounded=0;orthogonalLoop=1;jettySize=auto;html=1;" parent="1" source="evuOkTjY95VLcF-Q0Ab5-7" target="evuOkTjY95VLcF-Q0Ab5-14" edge="1">
                    <mxGeometry relative="1" as="geometry"/>
                </mxCell>
                <mxCell id="evuOkTjY95VLcF-Q0Ab5-17" value="No" style="edgeLabel;html=1;align=center;verticalAlign=middle;resizable=0;points=[];" parent="evuOkTjY95VLcF-Q0Ab5-15" vertex="1" connectable="0">
                    <mxGeometry x="-0.2769" y="-2" relative="1" as="geometry">
                        <mxPoint as="offset"/>
                    </mxGeometry>
                </mxCell>
                <mxCell id="evuOkTjY95VLcF-Q0Ab5-7" value="Path depths &amp;lt; threshold&amp;nbsp;" style="rhombus;whiteSpace=wrap;html=1;" parent="1" vertex="1">
                    <mxGeometry x="-419" y="490" width="190" height="80" as="geometry"/>
                </mxCell>
                <mxCell id="8" style="edgeStyle=none;html=1;exitX=0.5;exitY=0;exitDx=0;exitDy=0;entryX=0.5;entryY=0;entryDx=0;entryDy=0;" edge="1" parent="1" source="evuOkTjY95VLcF-Q0Ab5-14" target="2">
                    <mxGeometry relative="1" as="geometry">
                        <Array as="points">
                            <mxPoint x="-99" y="340"/>
                            <mxPoint x="-324" y="340"/>
                        </Array>
                    </mxGeometry>
                </mxCell>
                <mxCell id="evuOkTjY95VLcF-Q0Ab5-14" value="Sequential&lt;br&gt;Branch &amp;amp; Bound" style="whiteSpace=wrap;html=1;" parent="1" vertex="1">
                    <mxGeometry x="-159" y="500" width="120" height="60" as="geometry"/>
                </mxCell>
                <mxCell id="31" style="edgeStyle=none;html=1;exitX=1;exitY=0.5;exitDx=0;exitDy=0;entryX=0.5;entryY=0;entryDx=0;entryDy=0;" edge="1" parent="1" source="evuOkTjY95VLcF-Q0Ab5-30" target="2">
                    <mxGeometry relative="1" as="geometry">
                        <Array as="points">
                            <mxPoint x="-10" y="655"/>
                            <mxPoint x="-10" y="340"/>
                            <mxPoint x="-324" y="340"/>
                        </Array>
                    </mxGeometry>
                </mxCell>
                <mxCell id="evuOkTjY95VLcF-Q0Ab5-30" value="Bound" style="whiteSpace=wrap;html=1;" parent="1" vertex="1">
                    <mxGeometry x="-169" y="625" width="120" height="60" as="geometry"/>
                </mxCell>
                <mxCell id="12" style="edgeStyle=none;html=1;exitX=0.5;exitY=0;exitDx=0;exitDy=0;entryX=0.5;entryY=0;entryDx=0;entryDy=0;" edge="1" parent="1" source="evuOkTjY95VLcF-Q0Ab5-41" target="2">
                    <mxGeometry relative="1" as="geometry">
                        <Array as="points">
                            <mxPoint x="-569" y="340"/>
                            <mxPoint x="-309" y="340"/>
                        </Array>
                    </mxGeometry>
                </mxCell>
                <mxCell id="13" value="No" style="edgeLabel;html=1;align=center;verticalAlign=middle;resizable=0;points=[];" vertex="1" connectable="0" parent="12">
                    <mxGeometry x="0.0694" y="2" relative="1" as="geometry">
                        <mxPoint as="offset"/>
                    </mxGeometry>
                </mxCell>
                <mxCell id="15" style="edgeStyle=none;html=1;exitX=0.5;exitY=1;exitDx=0;exitDy=0;entryX=0.5;entryY=0;entryDx=0;entryDy=0;" edge="1" parent="1" source="evuOkTjY95VLcF-Q0Ab5-41" target="9">
                    <mxGeometry relative="1" as="geometry"/>
                </mxCell>
                <mxCell id="16" value="Yes" style="edgeLabel;html=1;align=center;verticalAlign=middle;resizable=0;points=[];" vertex="1" connectable="0" parent="15">
                    <mxGeometry x="0.2678" y="1" relative="1" as="geometry">
                        <mxPoint x="7" y="-1" as="offset"/>
                    </mxGeometry>
                </mxCell>
                <mxCell id="evuOkTjY95VLcF-Q0Ab5-41" value="All paths tested" style="rhombus;whiteSpace=wrap;html=1;" parent="1" vertex="1">
                    <mxGeometry x="-669" y="355" width="190" height="80" as="geometry"/>
                </mxCell>
                <mxCell id="4" style="edgeStyle=none;html=1;exitX=0.5;exitY=1;exitDx=0;exitDy=0;entryX=0.5;entryY=0;entryDx=0;entryDy=0;" edge="1" parent="1" source="2" target="evuOkTjY95VLcF-Q0Ab5-7">
                    <mxGeometry relative="1" as="geometry">
                        <mxPoint x="-323.8275862068965" y="530" as="targetPoint"/>
                    </mxGeometry>
                </mxCell>
                <mxCell id="5" value="Job found" style="edgeLabel;html=1;align=center;verticalAlign=middle;resizable=0;points=[];" vertex="1" connectable="0" parent="4">
                    <mxGeometry x="-0.4076" y="1" relative="1" as="geometry">
                        <mxPoint as="offset"/>
                    </mxGeometry>
                </mxCell>
                <mxCell id="6" style="edgeStyle=none;html=1;exitX=0;exitY=0.5;exitDx=0;exitDy=0;entryX=1;entryY=0.5;entryDx=0;entryDy=0;" edge="1" parent="1" source="2" target="evuOkTjY95VLcF-Q0Ab5-41">
                    <mxGeometry relative="1" as="geometry">
                        <mxPoint x="-489" y="390" as="targetPoint"/>
                        <Array as="points">
                            <mxPoint x="-429" y="395"/>
                        </Array>
                    </mxGeometry>
                </mxCell>
                <mxCell id="7" value="Queue empty" style="edgeLabel;html=1;align=center;verticalAlign=middle;resizable=0;points=[];" vertex="1" connectable="0" parent="6">
                    <mxGeometry x="-0.4383" y="-2" relative="1" as="geometry">
                        <mxPoint x="-17" y="2" as="offset"/>
                    </mxGeometry>
                </mxCell>
                <mxCell id="2" value="Pick a job from the&#10;queue" style="rhombus;" vertex="1" parent="1">
                    <mxGeometry x="-404" y="350" width="160" height="90" as="geometry"/>
                </mxCell>
                <mxCell id="18" style="edgeStyle=none;html=1;exitX=0.5;exitY=1;exitDx=0;exitDy=0;entryX=0.5;entryY=0;entryDx=0;entryDy=0;" edge="1" parent="1" source="9" target="19">
                    <mxGeometry relative="1" as="geometry">
                        <mxPoint x="-573.9411764705883" y="567.4999999999998" as="targetPoint"/>
                        <Array as="points">
                            <mxPoint x="-574" y="547.5"/>
                        </Array>
                    </mxGeometry>
                </mxCell>
                <mxCell id="20" value="No" style="edgeLabel;html=1;align=center;verticalAlign=middle;resizable=0;points=[];" vertex="1" connectable="0" parent="18">
                    <mxGeometry x="-0.0708" y="1" relative="1" as="geometry">
                        <mxPoint as="offset"/>
                    </mxGeometry>
                </mxCell>
                <mxCell id="21" style="edgeStyle=none;html=1;exitX=0;exitY=0.5;exitDx=0;exitDy=0;entryX=1;entryY=0.5;entryDx=0;entryDy=0;" edge="1" parent="1" source="9" target="23">
                    <mxGeometry relative="1" as="geometry">
                        <mxPoint x="-709" y="492.3571428571429" as="targetPoint"/>
                        <Array as="points"/>
                    </mxGeometry>
                </mxCell>
                <mxCell id="26" value="Yes" style="edgeLabel;html=1;align=center;verticalAlign=middle;resizable=0;points=[];" vertex="1" connectable="0" parent="21">
                    <mxGeometry x="-0.0923" relative="1" as="geometry">
                        <mxPoint as="offset"/>
                    </mxGeometry>
                </mxCell>
                <mxCell id="9" value="local shortest &amp;lt; global shortest" style="rhombus;whiteSpace=wrap;html=1;" vertex="1" parent="1">
                    <mxGeometry x="-669" y="462.5" width="190" height="80" as="geometry"/>
                </mxCell>
                <mxCell id="14" value="" style="ellipse;" vertex="1" parent="1">
                    <mxGeometry x="-339" y="130" width="30" height="30" as="geometry"/>
                </mxCell>
                <mxCell id="19" value="" style="ellipse;html=1;shape=endState;fillColor=strokeColor;" vertex="1" parent="1">
                    <mxGeometry x="-589" y="577.5" width="30" height="30" as="geometry"/>
                </mxCell>
                <mxCell id="25" style="edgeStyle=none;html=1;exitX=0.5;exitY=1;exitDx=0;exitDy=0;entryX=0;entryY=0.5;entryDx=0;entryDy=0;" edge="1" parent="1" source="23" target="19">
                    <mxGeometry relative="1" as="geometry">
                        <Array as="points">
                            <mxPoint x="-769" y="592.5"/>
                        </Array>
                    </mxGeometry>
                </mxCell>
                <mxCell id="23" value="Global shortest =&lt;br&gt;local shortest" style="rounded=0;whiteSpace=wrap;html=1;" vertex="1" parent="1">
                    <mxGeometry x="-827" y="472.5" width="120" height="60" as="geometry"/>
                </mxCell>
                <mxCell id="30" style="edgeStyle=none;html=1;exitX=1;exitY=0.5;exitDx=0;exitDy=0;entryX=0;entryY=0.5;entryDx=0;entryDy=0;" edge="1" parent="1" source="28" target="evuOkTjY95VLcF-Q0Ab5-30">
                    <mxGeometry relative="1" as="geometry"/>
                </mxCell>
                <mxCell id="33" style="edgeStyle=none;html=1;exitX=0.5;exitY=1;exitDx=0;exitDy=0;entryX=0;entryY=0.5;entryDx=0;entryDy=0;" edge="1" parent="1" source="28" target="32">
                    <mxGeometry relative="1" as="geometry">
                        <Array as="points">
                            <mxPoint x="-324" y="740"/>
                        </Array>
                    </mxGeometry>
                </mxCell>
                <mxCell id="28" value="Path distance &gt;=&#10;local shortest" style="rhombus;" vertex="1" parent="1">
                    <mxGeometry x="-399" y="600" width="150" height="110" as="geometry"/>
                </mxCell>
                <mxCell id="34" style="edgeStyle=none;html=1;exitX=1;exitY=0.5;exitDx=0;exitDy=0;entryX=0.5;entryY=0;entryDx=0;entryDy=0;" edge="1" parent="1" source="32" target="2">
                    <mxGeometry relative="1" as="geometry">
                        <Array as="points">
                            <mxPoint x="-10" y="740"/>
                            <mxPoint x="-10" y="340"/>
                            <mxPoint x="-324" y="340"/>
                        </Array>
                    </mxGeometry>
                </mxCell>
                <mxCell id="32" value="Enqueue branches&lt;br&gt;to job queue" style="whiteSpace=wrap;html=1;" vertex="1" parent="1">
                    <mxGeometry x="-169" y="710" width="120" height="60" as="geometry"/>
                </mxCell>
                <mxCell id="35" value="Thread Routine" style="shape=umlFrame;whiteSpace=wrap;html=1;width=120;height=30;boundedLbl=1;verticalAlign=middle;align=left;spacingLeft=5;" vertex="1" parent="1">
                    <mxGeometry x="-827" y="260" width="827" height="530" as="geometry"/>
                </mxCell>
            </root>
        </mxGraphModel>
    </diagram>
</mxfile>